# xmcd
# Track frame offsets:
# 150
# 17239
# 31783
# 47493
# 65302
# 82092
# 97877
# 114108
# 130990
# 146994
# 163944
#
# Disc length: 2419 seconds
# Revision: 0
# Processed by: cddbd v1.4PL0 Copyright (c) Steve Scherf et al.
# Submitted via: VisiTrax 2.9.5.180 - For more info visit www.synapsa.com
#
DISCID=8d09710b
DTITLE=Rob Dixon - Through her eyes
DYEAR=2000
DGENRE=
TTITLE0=Trough her eyes
TTITLE1=We still have love
TTITLE2=Don't lock out m heart
TTITLE3=Could I hold you again (with Patti Wilson)
TTITLE4=Would ou be mine
TTITLE5=If you didn't feel so good
TTITLE6=When you get me
TTITLE7=Holdin' on
TTITLE8=There's no other way to go
TTITLE9=So much easier said than done
TTITLE10=Lat's dance
EXTD=
EXTT0=
EXTT1=
EXTT2=
EXTT3=
EXTT4=
EXTT5=
EXTT6=
EXTT7=
EXTT8=
EXTT9=
EXTT10=
PLAYORDER=
